<?xml version="1.0" encoding="UTF-8"?>
<svg version="1.1" xmlns="http://www.w3.org/2000/svg" width="300" height="300">
<path d="M0 0 C99 0 198 0 300 0 C300 99 300 198 300 300 C201 300 102 300 0 300 C0 201 0 102 0 0 Z " fill="#3F2241" transform="translate(0,0)"/>
<path d="M0 0 C0.99 0.99 0.99 0.99 2 2 C1.61235659 10.74620436 -6.07781524 16.33868065 -12.125 21.9375 C-20.40945463 29.10282655 -29.48740192 35.43851268 -38.6484375 41.42578125 C-42.93373871 44.29451279 -47.10311176 47.32893629 -51.2890625 50.33984375 C-53.79318625 52.14055449 -56.30914569 53.92265198 -58.8359375 55.69140625 C-59.46024658 56.1306543 -60.08455566 56.56990234 -60.7277832 57.02246094 C-61.91375313 57.85634851 -63.10223317 58.68668252 -64.29370117 59.51269531 C-70.50077613 63.89415999 -78.45507789 70.19142627 -80 78 C-70.17731361 76.04574826 -62.3115696 72.5410464 -54 67 C-51.99598989 67.30830925 -49.99708656 67.64963394 -48 68 C-39.07395399 68.8463214 -31.76163595 67.65473832 -24 63 C-17.36778495 57.27324694 -14.16566619 50.32948534 -12 42 C-11.01 42 -10.02 42 -9 42 C-9.49877098 47.6859892 -10.52857942 51.8594452 -13 57 C-13.37125 57.94939453 -13.37125 57.94939453 -13.75 58.91796875 C-17.39633368 64.99139329 -26.45520433 70.74427355 -33.2421875 72.66015625 C-38.01238936 73.24798566 -42.82143424 73.1119374 -47.61767578 72.89086914 C-52.45545396 72.72406712 -54.9196747 73.1782166 -59 76 C-61.39901766 76.92228901 -63.81735483 77.79545782 -66.25 78.625 C-70.42604973 79.76948838 -70.42604973 79.76948838 -74 82 C-79.73611111 82.27314815 -79.73611111 82.27314815 -82 82 C-84 80 -84 80 -84.15234375 78.046875 C-83.34010486 69.36330287 -78.77005455 65.43565304 -72.35546875 60.1015625 C-71.90816406 59.73804688 -71.46085937 59.37453125 -71 59 C-71.41945035 56.48329792 -71.82444332 54.34014107 -73 52.0625 C-76.82824462 44.16674548 -75.54048556 34.20336398 -72.84765625 26.1875 C-70.85425033 21.04322666 -68.02524163 17.73772437 -64 14 C-63.278125 13.319375 -62.55625 12.63875 -61.8125 11.9375 C-53.25702083 6.04372546 -45.23377622 5.28775916 -35 6 C-33.72125 6.2475 -32.4425 6.495 -31.125 6.75 C-27.23338139 7.06132949 -25.43182275 5.97238954 -22.08984375 4.125 C-15.11206624 0.36873846 -7.90221507 -1.04012062 0 0 Z " fill="#452141" transform="translate(192,76)"/>
<path d="M0 0 C0.99 0.99 0.99 0.99 2 2 C1.61235659 10.74620436 -6.07781524 16.33868065 -12.125 21.9375 C-20.40945463 29.10282655 -29.48740192 35.43851268 -38.6484375 41.42578125 C-42.93373871 44.29451279 -47.10311176 47.32893629 -51.2890625 50.33984375 C-53.79318625 52.14055449 -56.30914569 53.92265198 -58.8359375 55.69140625 C-59.46024658 56.1306543 -60.08455566 56.56990234 -60.7277832 57.02246094 C-61.91375313 57.85634851 -63.10223317 58.68668252 -64.29370117 59.51269531 C-70.50077613 63.89415999 -78.45507789 70.19142627 -80 78 C-70.17731361 76.04574826 -62.3115696 72.5410464 -54 67 C-51.99598989 67.30830925 -49.99708656 67.64963394 -48 68 C-39.07395399 68.8463214 -31.76163595 67.65473832 -24 63 C-17.36778495 57.27324694 -14.16566619 50.32948534 -12 42 C-11.01 42 -10.02 42 -9 42 C-9.49877098 47.6859892 -10.52857942 51.8594452 -13 57 C-13.37125 57.94939453 -13.37125 57.94939453 -13.75 58.91796875 C-17.39633368 64.99139329 -26.45520433 70.74427355 -33.2421875 72.66015625 C-38.01238936 73.24798566 -42.82143424 73.1119374 -47.61767578 72.89086914 C-52.45545396 72.72406712 -54.9196747 73.1782166 -59 76 C-61.39901766 76.92228901 -63.81735483 77.79545782 -66.25 78.625 C-70.42604973 79.76948838 -70.42604973 79.76948838 -74 82 C-79.73611111 82.27314815 -79.73611111 82.27314815 -82 82 C-84 80 -84 80 -84.15234375 78.046875 C-83.62207798 72.37785184 -82.23922008 68.92442651 -78 65 C-77.39671875 64.43539062 -76.7934375 63.87078125 -76.171875 63.2890625 C-69.65579149 57.41432579 -62.63482771 52.36558979 -55.3203125 47.54296875 C-51.15783237 44.77498954 -47.085653 41.87961499 -43 39 C-41.63425006 38.04407724 -40.26835308 37.08836455 -38.90234375 36.1328125 C-17.3950817 22.39412824 -17.3950817 22.39412824 -2 3 C-10.57744404 4.62675663 -19.47365731 7.03560303 -27.19921875 11.1796875 C-29.75595452 12.34436106 -31.89371439 11.7164509 -34.59765625 11.30859375 C-42.50940263 10.29228812 -49.11669332 10.35825581 -56.2578125 14.125 C-58 15 -58 15 -60 15 C-60.33 15.99 -60.66 16.98 -61 18 C-61.763125 18.70125 -62.52625 19.4025 -63.3125 20.125 C-69.68883845 26.94619927 -70.47482715 33.51331621 -70.20703125 42.66796875 C-69.96947745 46.49124026 -69.60511028 50.21806074 -69 54 C-70.32 53.67 -71.64 53.34 -73 53 C-76.06093358 41.68547765 -75.83555383 31.84545102 -70.625 21.1875 C-68.63056751 18.50268703 -66.45089942 16.27583518 -64 14 C-63.278125 13.319375 -62.55625 12.63875 -61.8125 11.9375 C-53.25702083 6.04372546 -45.23377622 5.28775916 -35 6 C-33.72125 6.2475 -32.4425 6.495 -31.125 6.75 C-27.23338139 7.06132949 -25.43182275 5.97238954 -22.08984375 4.125 C-15.11206624 0.36873846 -7.90221507 -1.04012062 0 0 Z " fill="#C0154E" transform="translate(192,76)"/>
<path d="M0 0 C11 0 11 0 15 3 C15.40610815 5.9860893 15.55963414 8.5232623 15.5 11.5 C15.51546875 12.27214844 15.5309375 13.04429687 15.546875 13.83984375 C15.53125 16.09375 15.53125 16.09375 15 20 C11 23 11 23 0 23 C0 15.41 0 7.82 0 0 Z " fill="#EEECEE" transform="translate(79,190)"/>
<path d="M0 0 C2.85755578 0.5594447 4.06862936 1.21580875 6.03515625 3.3984375 C6.44352656 6.2059834 6.59526849 8.53821371 6.53515625 11.3359375 C6.550625 12.05201172 6.56609375 12.76808594 6.58203125 13.50585938 C6.5563776 16.96589524 6.29399995 19.03776299 4.2578125 21.875 C0.60974146 24.37543534 -1.60862307 23.88246202 -5.96484375 23.3984375 C-7.68603516 22.11523438 -7.68603516 22.11523438 -8.96484375 20.3984375 C-9.26294655 17.47586107 -9.38366492 14.81497967 -9.33984375 11.8984375 C-9.35144531 11.12628906 -9.36304688 10.35414063 -9.375 9.55859375 C-9.34563545 3.91081244 -9.34563545 3.91081244 -7.68603516 1.67773438 C-5.26547719 -0.12137538 -2.93676311 0.03395102 0 0 Z " fill="#ECEAED" transform="translate(194.96484375,189.6015625)"/>
<path d="M0 0 C2.375 0.125 2.375 0.125 5 1 C6.6875 3.5 6.6875 3.5 8 6 C8.66 6.33 9.32 6.66 10 7 C10.309375 6.030625 10.61875 5.06125 10.9375 4.0625 C12 1 12 1 13 0 C14.65 0 16.3 0 18 0 C18 7.59 18 15.18 18 23 C16.35 22.67 14.7 22.34 13 22 C12.67 18.7 12.34 15.4 12 12 C11.01 13.485 11.01 13.485 10 15 C9.01 15 8.02 15 7 15 C6.34 13.68 5.68 12.36 5 11 C4.67 14.96 4.34 18.92 4 23 C2.35 23 0.7 23 -1 23 C-1.02887512 19.35418313 -1.04675585 15.70839537 -1.0625 12.0625 C-1.07087891 11.02158203 -1.07925781 9.98066406 -1.08789062 8.90820312 C-1.09272461 7.42416992 -1.09272461 7.42416992 -1.09765625 5.91015625 C-1.10289307 4.99371338 -1.10812988 4.07727051 -1.11352539 3.13305664 C-1 1 -1 1 0 0 Z " fill="#ECEAED" transform="translate(105,190)"/>
<path d="M0 0 C1.65 0 3.3 0 5 0 C6.65 2.97 8.3 5.94 10 9 C10.33 6.03 10.66 3.06 11 0 C12.65 0 14.3 0 16 0 C16 7.59 16 15.18 16 23 C14.35 23 12.7 23 11 23 C9.35 19.7 7.7 16.4 6 13 C5.67 16.3 5.34 19.6 5 23 C3.35 23 1.7 23 0 23 C0 15.41 0 7.82 0 0 Z " fill="#EBE8EB" transform="translate(143,190)"/>
<path d="M0 0 C5 1 5 1 6.58203125 3.06640625 C8.29101562 6.53320312 8.29101562 6.53320312 10 10 C10.33 6.7 10.66 3.4 11 0 C12.65 0 14.3 0 16 0 C16 7.59 16 15.18 16 23 C14.35 23 12.7 23 11 23 C9.35 20.03 7.7 17.06 6 14 C5.67 16.97 5.34 19.94 5 23 C3.35 23 1.7 23 0 23 C0 15.41 0 7.82 0 0 Z " fill="#EAE7EB" transform="translate(204,190)"/>
<path d="M0 0 C0.66 0.33 1.32 0.66 2 1 C2 2.32 2 3.64 2 5 C-0.64 5 -3.28 5 -6 5 C-6.33 5.99 -6.66 6.98 -7 8 C-5.906875 8.268125 -4.81375 8.53625 -3.6875 8.8125 C1.46501129 10.4717833 1.46501129 10.4717833 3 13 C3.52979878 16.5572204 3.43204232 18.31593299 1.5 21.375 C-2.21370023 23.78890515 -4.60458631 23.41861083 -9 23 C-9.99 22.34 -10.98 21.68 -12 21 C-12 19.68 -12 18.36 -12 17 C-8.7 17.33 -5.4 17.66 -2 18 C-3.17351952 14.47944145 -3.90322383 14.17776613 -7 12.375 C-10.95652174 10.04347826 -10.95652174 10.04347826 -12 9 C-12.42846279 5.82937535 -12.25779973 4.39744124 -10.5 1.6875 C-6.82930612 -0.79021837 -4.38438112 -0.35357912 0 0 Z " fill="#EEECEE" transform="translate(173,190)"/>
<path d="M0 0 C4.62 0 9.24 0 14 0 C14 1.32 14 2.64 14 4 C10.7 4 7.4 4 4 4 C4 5.65 4 7.3 4 9 C5.98 9 7.96 9 10 9 C10 10.32 10 11.64 10 13 C8.02 13 6.04 13 4 13 C4 14.98 4 16.96 4 19 C7.3 19 10.6 19 14 19 C14 20.32 14 21.64 14 23 C9.38 23 4.76 23 0 23 C0 15.41 0 7.82 0 0 Z " fill="#FAFAFA" transform="translate(127,190)"/>
<path d="M0 0 C-0.33 0.99 -0.66 1.98 -1 3 C-1.94875 2.67 -2.8975 2.34 -3.875 2 C-9.69954441 0.35778565 -15.45887567 0.21811559 -21.25 2 C-26.41482832 5.75623878 -29.53577282 9.17519279 -30.59765625 15.63671875 C-30.8462805 19.09994947 -30.99024844 22.52844495 -31 26 C-31.99 26 -32.98 26 -34 26 C-35.96947221 20.09158337 -35.61017416 13.72915774 -33.2421875 8.0234375 C-30.10705941 2.91653074 -25.2667486 -0.88975579 -19.9375 -3.5 C-11.94575812 -4.86029649 -7.11122647 -3.68730261 0 0 Z " fill="#C8154F" transform="translate(163,98)"/>
<path d="M0 0 C1.65 0 3.3 0 5 0 C5 7.59 5 15.18 5 23 C3.35 23 1.7 23 0 23 C0 15.41 0 7.82 0 0 Z " fill="#E7E3E7" transform="translate(178,190)"/>
<path d="M0 0 C1.65 0 3.3 0 5 0 C5 7.59 5 15.18 5 23 C3.35 23 1.7 23 0 23 C0 15.41 0 7.82 0 0 Z " fill="#E4E1E5" transform="translate(97,190)"/>
<path d="M0 0 C0.99 0 1.98 0 3 0 C3.57161264 3.83797056 3.60069234 5.94661198 1.65234375 9.36328125 C-1.66419759 13.81692248 -4.58556881 17.1951896 -10 19 C-11.32 19 -12.64 19 -14 19 C-14 18.01 -14 17.02 -14 16 C-12.3203125 14.61328125 -12.3203125 14.61328125 -10.125 13.3125 C-9.40570313 12.87550781 -8.68640625 12.43851563 -7.9453125 11.98828125 C-6 11 -6 11 -4 11 C-2.50859979 7.37802806 -1.2125738 3.72433382 0 0 Z " fill="#C2154E" transform="translate(168,118)"/>
<path d="M0 0 C0.83144531 0.10892578 1.66289062 0.21785156 2.51953125 0.33007812 C4.55693591 0.59939024 6.59134607 0.89119193 8.625 1.1875 C8.625 1.5175 8.625 1.8475 8.625 2.1875 C5.985 2.5175 3.345 2.8475 0.625 3.1875 C3.265 3.5175 5.905 3.8475 8.625 4.1875 C8.625 4.5175 8.625 4.8475 8.625 5.1875 C7.38363281 5.15269531 6.14226562 5.11789063 4.86328125 5.08203125 C3.22136774 5.05388416 1.57943954 5.02658499 -0.0625 5 C-0.87912109 4.97486328 -1.69574219 4.94972656 -2.53710938 4.92382812 C-7.46296032 4.86399998 -10.22254965 5.28951839 -14.375 8.1875 C-15.035 7.8575 -15.695 7.5275 -16.375 7.1875 C-16.375 4.1875 -16.375 4.1875 -15.375 2.1875 C-10.05962212 -1.40918314 -6.02682735 -0.89873741 0 0 Z " fill="#B1174D" transform="translate(147.375,143.8125)"/>
<path d="M0 0 C2.475 0.495 2.475 0.495 5 1 C5 5.29 5 9.58 5 14 C3.35 14.33 1.7 14.66 0 15 C0 10.05 0 5.1 0 0 Z " fill="#412443" transform="translate(84,194)"/>
<path d="M0 0 C1.98 0.495 1.98 0.495 4 1 C4 5.29 4 9.58 4 14 C2.68 14.33 1.36 14.66 0 15 C-1 14 -1 14 -1.1328125 11.09375 C-1.13023437 9.9078125 -1.12765625 8.721875 -1.125 7.5 C-1.12757813 6.3140625 -1.13015625 5.128125 -1.1328125 3.90625 C-1 1 -1 1 0 0 Z " fill="#432644" transform="translate(192,194)"/>
<path d="M0 0 C1.65 0 3.3 0 5 0 C5 7.59 5 15.18 5 23 C4.67 23 4.34 23 4 23 C4 15.74 4 8.48 4 1 C2.02 2.32 0.04 3.64 -2 5 C-1.34 3.35 -0.68 1.7 0 0 Z " fill="#E0DCE1" transform="translate(118,190)"/>
<path d="M0 0 C5.75 1.875 5.75 1.875 8 3 C8 3.99 8 4.98 8 6 C4.26512223 5.5020163 2.18762365 5.12508244 -1 3 C-0.67 2.01 -0.34 1.02 0 0 Z " fill="#BF164E" transform="translate(138,131)"/>
<path d="M0 0 C0 0.66 0 1.32 0 2 C-2.80157448 2.93385816 -4.65447803 3.16354595 -7.5625 3.1875 C-8.74005859 3.20876953 -8.74005859 3.20876953 -9.94140625 3.23046875 C-12 3 -12 3 -14 1 C-12.41693353 0.83081732 -10.83353281 0.66476064 -9.25 0.5 C-8.36828125 0.4071875 -7.4865625 0.314375 -6.578125 0.21875 C-4 0 -4 0 0 0 Z " fill="#D31450" transform="translate(160,145)"/>
<path d="M0 0 C-1.41519715 2.0343459 -2.54982123 2.90410393 -4.98046875 3.421875 C-6.98176954 3.66273952 -8.9909944 3.83532741 -11 4 C-10.67 3.01 -10.34 2.02 -10 1 C-6.59437148 0.22157062 -3.49234244 -0.09978121 0 0 Z " fill="#D01450" transform="translate(149,83)"/>
<path d="M0 0 C-1 3 -1 3 -3.9375 4.6875 C-7 6 -7 6 -9 6 C-8.00269864 3.5067466 -7.34925469 2.22532561 -5.0625 0.75 C-3 0 -3 0 0 0 Z " fill="#CF1450" transform="translate(173,81)"/>
<path d="M0 0 C6.75 0.875 6.75 0.875 9 2 C8.67 2.66 8.34 3.32 8 4 C5.36 4 2.72 4 0 4 C0 2.68 0 1.36 0 0 Z " fill="#D31450" transform="translate(109,153)"/>
<path d="M0 0 C0 3 0 3 -1.53125 4.82421875 C-2.1809375 5.43910156 -2.830625 6.05398437 -3.5 6.6875 C-4.1496875 7.31011719 -4.799375 7.93273437 -5.46875 8.57421875 C-5.9740625 9.04472656 -6.479375 9.51523438 -7 10 C-7.66 9.67 -8.32 9.34 -9 9 C-6.31941902 5.42589203 -3.57410797 2.68058098 0 0 Z " fill="#561F44" transform="translate(124,137)"/>
<path d="M0 0 C-0.33 0.33 -0.66 0.66 -1 1 C-0.34 1.66 0.32 2.32 1 3 C-0.65 3.33 -2.3 3.66 -4 4 C-4 3.34 -4 2.68 -4 2 C-5.65 2.33 -7.3 2.66 -9 3 C-8 1 -8 1 -5.0625 -0.1875 C-2 -1 -2 -1 0 0 Z " fill="#AD174C" transform="translate(177,79)"/>
</svg>
